# xmcd
#
# Track frame offsets: 
#        150
#        18990
#        36538
#        52193
#        69443
#        87350
#        101685
#        120868
#        135560
#        149865
#
# Disc length: 2316 seconds
#
# Revision: 1
# Processed by: cddbd v1.4PL0 Copyright (c) Steve Scherf et al.
# Submitted via: ExactAudioCopy v0.90b4
#
DISCID=91090a0a
DTITLE=Chris de Burgh - Eastern Wind
DYEAR=1900
DGENRE=Folk
TTITLE0=The traveller
TTITLE1=The record company bash
TTITLE2=Tonight
TTITLE3=Wall of silence
TTITLE4=Flying home
TTITLE5=Shadows and lights
TTITLE6=Sailor
TTITLE7=Some things never change
TTITLE8=Tourist attraction
TTITLE9=Eastern Wind
EXTD=
EXTT0=
EXTT1=
EXTT2=
EXTT3=
EXTT4=
EXTT5=
EXTT6=
EXTT7=
EXTT8=
EXTT9=
PLAYORDER=
